<?xml version="1.0" encoding="utf-8"?>
<svg viewBox="0 0 500 500" class="xl-secondary secondary" xmlns="http://www.w3.org/2000/svg">
  <g transform="matrix(1, 0, 0, 1, -9.624199, 25.751923)">
    <title>large</title>
    <g transform="matrix(1, 0, 0, 1, 0.210698, 0.210696)">
      <path style="stroke: rgb(0, 0, 0); stroke-width: 0px; fill-rule: nonzero; paint-order: stroke; stroke-miterlimit: 19; stroke-dashoffset: -1px; fill: rgb(249, 115, 22);" d="M 357.466 363.491 C 357.466 366.188 354.99 368.375 351.936 368.375 C 338.067 410.835 162.183 408.063 166.934 368.375 C 163.88 368.375 161.404 366.188 161.404 363.491 L 161.404 253.399 C 161.287 251.203 161.227 248.989 161.227 246.76 C 161.227 186.197 205.187 137.101 259.413 137.101 C 313.64 137.101 357.6 186.197 357.6 246.76 C 357.6 248.697 357.555 250.623 357.466 252.535 L 357.466 363.491 Z"/>
    </g>
    <path d="M 234.325 239.558 C 222.793 239.558 213.444 230.669 213.444 219.704 C 213.444 208.739 222.793 199.85 234.325 199.85 C 239.13 199.85 243.556 201.393 247.085 203.987 C 252.261 194.814 262.616 188.554 274.546 188.554 C 291.655 188.554 305.525 201.428 305.525 217.308 C 305.525 233.188 291.655 246.062 274.546 246.062 C 264.012 246.062 254.706 241.182 249.109 233.725 C 245.329 237.328 240.101 239.558 234.325 239.558 Z" style="stroke: rgb(0, 0, 0); stroke-width: 0.5px; fill: rgb(229, 225, 225);" class="eyeballs">
      <title>eye-balls</title>
    </path>
    <ellipse style="stroke: rgb(0, 0, 0); fill: rgb(7, 0, 0);" cx="241.172" cy="221.758" rx="6.162" ry="5.82" class="eye left-eye">
      <title>left-eye</title>
    </ellipse>
    <ellipse style="stroke: rgb(0, 0, 0);" cx="264.448" cy="220.731" rx="10.612" ry="10.612" class="eye, right-eye">
      <title>right-eye</title>
    </ellipse>
    <g>
      <title>Mouth</title>
      <path d="M 307.807 295.917 C 307.807 330.099 286.214 357.81 259.576 357.81 C 232.938 357.81 211.345 330.099 211.345 295.917 C 211.345 281.785 215.035 268.759 221.247 258.341 C 231.355 264.471 243.389 268.027 256.302 268.027 C 271.238 268.027 284.993 263.271 295.955 255.28 C 303.337 266.153 307.807 280.365 307.807 295.917 Z" style="stroke: rgb(0, 0, 0);" class="mouth">
        <title>mouth</title>
      </path>
      <path style="stroke: rgb(0, 0, 0); fill: rgb(137, 92, 92); fill-opacity: 0; stroke-linecap: round; stroke-linejoin: round;" d="M 294.672 253.82 L 296.208 255.4 L 298.148 255.189" class="right-smile">
        <title>right-smile</title>
      </path>
      <path style="stroke: rgb(0, 0, 0); fill: rgb(137, 92, 92); fill-opacity: 0; stroke-linecap: round; stroke-linejoin: round;" d="M 219.062 256.893 L 220.598 258.473 L 222.538 258.262" transform="matrix(0.539529, -0.841967, 0.841967, 0.539529, -115.288593, 304.561849)" class="left-smile">
        <title>left-smile</title>
      </path>
    </g>
    <path style="stroke: rgb(255, 255, 255); fill: rgb(244, 244, 244);" d="M 245.286 268.525 L 269.186 268.075 L 264.183 281.126 L 251.678 281.577 L 245.286 268.525 Z" class="tooth">
      <title>Tooth</title>
    </path>
    <path stroke-width="0" d="M 283.211 49.616 C 285.923 48.849 288.938 49.001 291.056 49.616 C 292.789 50.121 294.218 50.509 295.257 52.368 C 296.718 54.978 297.949 61.036 297.499 65.778 C 296.987 71.16 291.045 78.492 291.335 82.972 C 291.564 86.497 295.468 88.342 296.378 91.225 C 297.211 93.865 298.198 95.718 296.938 99.478 C 294.451 106.897 279.206 125.574 272.566 133.521 C 269.333 137.389 266.467 140.576 263.936 142.823 C 264.414 143.462 264.68 144.171 264.68 144.918 C 264.68 147.734 260.899 150.017 256.235 150.017 C 251.571 150.017 247.79 147.734 247.79 144.918 C 247.79 143.993 248.198 143.125 248.912 142.377 C 248.857 142.292 248.804 142.205 248.753 142.118 C 247.096 139.284 246.506 132.035 246.512 129.738 C 246.515 128.604 246.983 128.784 247.072 127.675 C 247.243 125.552 245.907 121.772 246.512 116.671 C 247.514 108.223 251.237 90.025 256.037 79.534 C 260.509 69.756 268.563 60.013 273.686 55.119 C 277.223 51.739 280.16 50.48 283.211 49.616 Z" style="stroke-width: 2px; fill: rgb(117, 199, 227); stroke: rgb(151, 170, 89); stroke-opacity: 0; paint-order: fill markers;" class="hair">
      <title>Hair</title>
    </path>
  </g>
</svg>