<?xml version="1.0" encoding="utf-8"?>
<svg viewBox="0 0 500 500" class="xl-secondary secondary" xmlns="http://www.w3.org/2000/svg" xmlns:bx="https://boxy-svg.com">
  <defs>
    <radialGradient gradientUnits="userSpaceOnUse" cx="257.36" cy="162.369" r="98.187" id="gradient-1" gradientTransform="matrix(0.005099, 0.331113, -0.581636, 0.008957, 350.48727, 75.699396)">
      <stop offset="0" style="stop-color: rgba(241, 105, 15, 1)"/>
      <stop offset="1" style="stop-color: rgb(218, 93, 9);"/>
    </radialGradient>
  </defs>
  <g transform="matrix(1, 0, 0, 1, 20.026346, 14.756254)">
    <title>gobbler_xl</title>
    <g transform="matrix(1, 0, 0, 1, 0.210698, 0.210696)">
      <path style="stroke: rgb(0, 0, 0); stroke-width: 0px; fill-rule: nonzero; paint-order: stroke; fill: url(#gradient-1); stroke-miterlimit: 19; stroke-dashoffset: -1px;" d="M 357.466 363.491 C 357.466 366.188 354.99 368.375 351.936 368.375 C 338.067 410.835 162.183 408.063 166.934 368.375 C 163.88 368.375 161.404 366.188 161.404 363.491 L 161.404 253.399 C 161.287 251.203 161.227 248.989 161.227 246.76 C 161.227 186.197 205.187 137.101 259.413 137.101 C 313.64 137.101 357.6 186.197 357.6 246.76 C 357.6 248.697 357.555 250.623 357.466 252.535 L 357.466 363.491 Z"/>
    </g>
    <g>
      <title>eyes</title>
      <path d="M 281.622 235.383 C 271.785 235.383 262.944 230.387 257.668 223.308 C 256.858 224.251 255.959 225.154 254.97 226.008 C 252.34 228.281 249.158 230.045 245.762 231.24 C 242.365 232.435 238.753 233.062 235.258 233.062 C 224.711 233.062 214.98 226.933 210.287 218.73 C 205.595 210.526 205.941 200.248 215.547 191.95 C 220.99 187.249 228.125 184.897 235.258 184.897 C 242.393 184.897 249.527 187.249 254.97 191.95 C 255.996 192.837 256.925 193.775 257.757 194.755 C 258.718 193.571 259.823 192.416 261.08 191.3 C 266.752 186.258 274.187 183.736 281.622 183.736 C 289.057 183.736 296.491 186.258 302.164 191.3 C 307.836 196.342 310.672 202.951 310.672 209.56 C 310.672 216.168 307.836 222.777 302.164 227.819 C 299.447 230.235 296.138 232.126 292.595 233.413 C 289.052 234.7 285.276 235.383 281.622 235.383 Z" style="fill: rgb(216, 216, 216); stroke: rgb(0, 0, 0); stroke-linecap: round; stroke-width: 0px;" class="eyes eye-balls"/>
      <ellipse style="stroke: rgb(0, 0, 0); fill: rgb(7, 0, 0); stroke-width: 9px;" cx="282.835" cy="208.178" rx="6" ry="6" class="eye right-eye">
        <title>right-eye</title>
      </ellipse>
      <ellipse style="stroke: rgb(0, 0, 0); fill: rgb(7, 0, 0); stroke-width: 9px;" cx="235.404" cy="209.312" rx="6" ry="6" class="eye left-eye">
        <title>left-eye</title>
      </ellipse>
    </g>
    <path style="stroke: rgb(0, 0, 0);" transform="matrix(1.049453, -0.400318, 0.326333, 0.91683, -382.811798, -11.375574)" d="M 500.586 529.995 A 49.771 49.771 0 1 1 414.612 486.347 L 452 519.2 Z" bx:shape="pie 452 519.2 0 49.771 102.527 311.306 1@658201b1" bx:origin="0.547 0.409">
      <title>Mouth</title>
    </path>
  </g>
  <path stroke-width="0" d="M 394.861 126.15 C 413.324 139.484 349.901 135.896 353.245 158.424 C 354.986 170.149 364.439 191.124 352.671 192.546 C 324.949 195.896 306.752 169.351 278.896 167.408 C 255.709 165.791 211.239 210.703 209.422 187.53 C 202.46 98.759 375.874 112.438 394.861 126.15 Z" style="stroke-width: 2px; fill: rgb(117, 199, 227); stroke: rgb(151, 170, 89); stroke-opacity: 0; paint-order: fill markers;" class="hair">
    <title>Hair</title>
  </path>
  <g>
    <title>teeth</title>
    <path d="M 264.506 339.078 C 264.81 336.647 266.186 335.386 268.634 335.294 L 274.403 335.077 C 276.851 334.985 277.923 336.155 277.62 338.586 L 276.904 344.315 C 276.6 346.746 275.224 348.007 272.776 348.099 L 267.007 348.315 C 264.558 348.407 263.486 347.238 263.79 344.807 L 264.506 339.078 Z M 277.004 339.078 C 277.308 336.647 278.684 335.386 281.132 335.294 L 286.901 335.077 C 289.35 334.985 290.422 336.155 290.118 338.586 L 289.402 344.315 C 289.098 346.746 287.722 348.007 285.274 348.099 L 279.505 348.316 C 277.057 348.407 275.985 347.238 276.288 344.807 L 277.004 339.078 Z" style="fill: rgb(216, 216, 216); stroke: rgb(0, 0, 0);"/>
    <path d="M 269.256 300.583 C 269.56 298.152 270.936 296.89 273.384 296.798 L 279.153 296.582 C 281.601 296.49 282.673 297.659 282.37 300.09 L 281.654 305.819 C 281.35 308.25 279.974 309.512 277.526 309.603 L 271.757 309.82 C 269.308 309.912 268.236 308.742 268.54 306.311 L 269.256 300.583 Z M 281.754 300.583 C 282.058 298.152 283.434 296.89 285.882 296.798 L 291.651 296.582 C 294.099 296.49 295.172 297.66 294.868 300.091 L 294.152 305.819 C 293.848 308.25 292.472 309.512 290.024 309.604 L 284.255 309.82 C 281.807 309.912 280.734 308.742 281.038 306.311 L 281.754 300.583 Z" style="fill: rgb(216, 216, 216); stroke: rgb(0, 0, 0);"/>
  </g>
</svg>