<?xml version="1.0" encoding="utf-8"?>
<svg viewBox="0 0 500 500" class="xl-secondary secondary" xmlns="http://www.w3.org/2000/svg" xmlns:bx="https://boxy-svg.com">
  <g transform="matrix(1, 0, 0, 1, 20.026344, 21.851814)" bx:origin="0.76 0.555">
    <title>small</title>
    <g transform="matrix(1, 0, 0, 0.951546, -29.439852, 7.451022)" style="">
      <path style="stroke: rgb(0, 0, 0); stroke-width: 0px; fill-rule: nonzero; paint-order: stroke; stroke-miterlimit: 19; stroke-dashoffset: -1px; fill: rgb(249, 115, 22);" d="M 357.466 341.981 C 357.466 344.421 354.99 346.401 351.936 346.401 C 340.736 400.212 168.424 407.348 166.934 346.401 C 163.88 346.401 161.404 344.421 161.404 341.981 L 161.404 242.349 C 161.287 240.362 161.227 238.358 161.227 236.341 C 161.227 181.532 205.187 137.101 259.413 137.101 C 313.64 137.101 357.6 181.532 357.6 236.341 C 357.6 238.094 357.555 239.837 357.466 241.567 L 357.466 341.981 Z"/>
    </g>
    <g transform="matrix(1.391735, 0, 0, 1.06798, -119.770782, -4.885032)" style="">
      <path style="stroke: rgb(0, 0, 0);" d="M 265.534 291.923 C 262.38 297.947 258.607 295.188 254.085 295.098 C 249.781 295.014 243.97 297.852 240.731 291.541 C 239.63 289.397 239.042 287.198 238.167 284.673 L 238.914 283.111 C 247.902 289.642 258.285 289.488 267.52 283.255 L 268.292 285.082 C 268.248 285.23 268.203 285.377 268.157 285.523 C 267.41 287.913 266.461 290.155 265.534 291.923 Z"/>
      <path style="stroke: rgb(0, 0, 0);" d="M 240.881 278.495 C 244.332 271.862 248.832 276.532 253.585 277.096 C 256.393 277.428 260.107 274.766 262.623 275.619 C 265.25 276.509 266.837 280.43 268.155 285.299 L 267.788 286.684 C 258.388 280.759 248.016 280.97 239.022 287.22 L 238.235 284.764 C 238.968 282.487 239.95 280.284 240.881 278.495 Z"/>
    </g>
    <g transform="matrix(1, 0, 0, 1, -43.572845, -14.756254)">
      <path stroke-width="0" d="M 217.712 179.203 C 196.453 191.862 203.861 253.217 196.872 286.043 C 195.964 290.307 191.415 295.903 185.375 298.607 C 177.64 302.071 167.441 301.935 166.366 302.652 C 160.821 305.006 142.459 303.129 131.609 291.632 C 119.758 279.074 115.764 256.697 119.747 257.048 C 127.808 257.759 139.746 266.391 155.617 223.856 C 157.962 217.572 158.472 183.059 168.842 143.788 C 173.745 125.219 180.496 114.567 188.25 109.431 C 211.64 87.422 358.106 77.958 378.251 143.947 C 390.11 182.794 389.131 217.731 391.476 224.015 C 407.347 266.55 419.285 257.918 427.346 257.207 C 431.329 256.856 427.335 279.233 415.484 291.791 C 404.634 303.288 386.272 305.165 380.727 302.811 C 379.652 302.094 369.453 302.23 361.718 298.766 C 355.678 296.062 351.129 290.466 350.221 286.202 C 343.232 253.376 350.64 192.021 329.381 179.362 L 271.63 156.571 C 271.74 156.666 271.848 156.758 271.955 156.848 Z" style="stroke-width: 2px; fill: rgb(117, 199, 227); stroke: rgb(151, 170, 89); stroke-opacity: 0; paint-order: fill markers;" class="hair"/>
    </g>
    <g transform="matrix(1, 0, 0, 1, -41.168018, -5.738488)">
      <ellipse style="fill: rgb(216, 216, 216); stroke: rgb(0, 0, 0); stroke-width: 3px;" cx="237.681" cy="242.029" rx="25.236" ry="14.974" transform="matrix(0.973161, 0.230126, -0.607137, 0.884008, 152.189623, -33.373884)" bx:origin="0.068 0.208"/>
      <ellipse style="stroke: rgb(0, 0, 0); stroke-width: 0px;" cx="247.43" cy="235.968" rx="15.284" ry="12.648"/>
      <g>
        <path style="stroke: rgb(0, 0, 0);" transform="matrix(0.955738, -0.294217, 0.457553, 1.486315, -93.635704, -167.113571)" d="M 210.433 296.063 A 3.537 3.537 0 0 1 210.433 302.337 A 7.303 7.303 0 0 0 210.433 296.063 Z" bx:shape="crescent 208.8 299.2 3.537 125 0.831 1@2d851211"/>
        <path style="stroke: rgb(0, 0, 0);" transform="matrix(0.898299, -0.589508, 0.775791, 1.182158, -209.017136, -7.314119)" d="M 210.433 296.063 A 3.537 3.537 0 0 1 210.433 302.337 A 7.303 7.303 0 0 0 210.433 296.063 Z" bx:shape="crescent 208.8 299.2 3.537 125 0.831 1@2d851211"/>
        <path style="stroke: rgb(0, 0, 0);" transform="matrix(0.836048, -0.548656, 0.853242, 1.300179, -206.377716, -56.885849)" d="M 210.433 296.063 A 3.537 3.537 0 0 1 210.433 302.337 A 7.303 7.303 0 0 0 210.433 296.063 Z" bx:shape="crescent 208.8 299.2 3.537 125 0.831 1@2d851211"/>
        <path style="stroke: rgb(0, 0, 0);" transform="matrix(0.836048, -0.548656, 0.853242, 1.300179, -201.66304, -58.443855)" d="M 210.433 296.063 A 3.537 3.537 0 0 1 210.433 302.337 A 7.303 7.303 0 0 0 210.433 296.063 Z" bx:shape="crescent 208.8 299.2 3.537 125 0.831 1@2d851211"/>
        <path style="stroke: rgb(0, 0, 0);" transform="matrix(0.836048, -0.548656, 0.853242, 1.300179, -195.613953, -57.869171)" d="M 210.433 296.063 A 3.537 3.537 0 0 1 210.433 302.337 A 7.303 7.303 0 0 0 210.433 296.063 Z" bx:shape="crescent 208.8 299.2 3.537 125 0.831 1@2d851211"/>
        <path style="stroke: rgb(0, 0, 0);" transform="matrix(0.913814, -0.406134, 0.631599, 1.421116, -141.107269, -123.769104)" d="M 210.433 296.063 A 3.537 3.537 0 0 1 210.433 302.337 A 7.303 7.303 0 0 0 210.433 296.063 Z" bx:shape="crescent 208.8 299.2 3.537 125 0.831 1@2d851211"/>
        <path style="stroke: rgb(0, 0, 0);" transform="matrix(0.769168, -0.504766, 0.677061, 1.031713, -148.145981, 17.650749)" d="M 210.433 296.063 A 3.537 3.537 0 0 1 210.433 302.337 A 7.303 7.303 0 0 0 210.433 296.063 Z" bx:shape="crescent 208.8 299.2 3.537 125 0.831 1@2d851211"/>
        <path style="stroke: rgb(0, 0, 0);" transform="matrix(0.836048, -0.548656, 0.853242, 1.300179, -211.549545, -55.968487)" d="M 210.433 296.063 A 3.537 3.537 0 0 1 210.433 302.337 A 7.303 7.303 0 0 0 210.433 296.063 Z" bx:shape="crescent 208.8 299.2 3.537 125 0.831 1@2d851211"/>
      </g>
    </g>
    <g transform="matrix(-1, 0, 0, 1, 503.119904, -5.958196)">
      <ellipse style="fill: rgb(216, 216, 216); stroke: rgb(0, 0, 0); stroke-width: 3px;" cx="237.681" cy="242.029" rx="25.236" ry="14.974" transform="matrix(0.973161, 0.230126, -0.607137, 0.884008, 152.189623, -33.373884)" bx:origin="0.068 0.208"/>
      <ellipse style="stroke: rgb(0, 0, 0); stroke-width: 0px;" cx="226.201" cy="235.452" rx="15.284" ry="12.648"/>
      <g>
        <path style="stroke: rgb(0, 0, 0);" transform="matrix(0.955738, -0.294217, 0.457553, 1.486315, -93.635704, -167.113571)" d="M 210.433 296.063 A 3.537 3.537 0 0 1 210.433 302.337 A 7.303 7.303 0 0 0 210.433 296.063 Z" bx:shape="crescent 208.8 299.2 3.537 125 0.831 1@2d851211"/>
        <path style="stroke: rgb(0, 0, 0);" transform="matrix(0.898299, -0.589508, 0.775791, 1.182158, -209.017136, -7.314119)" d="M 210.433 296.063 A 3.537 3.537 0 0 1 210.433 302.337 A 7.303 7.303 0 0 0 210.433 296.063 Z" bx:shape="crescent 208.8 299.2 3.537 125 0.831 1@2d851211"/>
        <path style="stroke: rgb(0, 0, 0);" transform="matrix(0.836048, -0.548656, 0.853242, 1.300179, -206.377716, -56.885849)" d="M 210.433 296.063 A 3.537 3.537 0 0 1 210.433 302.337 A 7.303 7.303 0 0 0 210.433 296.063 Z" bx:shape="crescent 208.8 299.2 3.537 125 0.831 1@2d851211"/>
        <path style="stroke: rgb(0, 0, 0);" transform="matrix(0.836048, -0.548656, 0.853242, 1.300179, -201.66304, -58.443855)" d="M 210.433 296.063 A 3.537 3.537 0 0 1 210.433 302.337 A 7.303 7.303 0 0 0 210.433 296.063 Z" bx:shape="crescent 208.8 299.2 3.537 125 0.831 1@2d851211"/>
        <path style="stroke: rgb(0, 0, 0);" transform="matrix(0.836048, -0.548656, 0.853242, 1.300179, -195.613953, -57.869171)" d="M 210.433 296.063 A 3.537 3.537 0 0 1 210.433 302.337 A 7.303 7.303 0 0 0 210.433 296.063 Z" bx:shape="crescent 208.8 299.2 3.537 125 0.831 1@2d851211"/>
        <path style="stroke: rgb(0, 0, 0);" transform="matrix(0.913814, -0.406134, 0.631599, 1.421116, -141.107269, -123.769104)" d="M 210.433 296.063 A 3.537 3.537 0 0 1 210.433 302.337 A 7.303 7.303 0 0 0 210.433 296.063 Z" bx:shape="crescent 208.8 299.2 3.537 125 0.831 1@2d851211"/>
        <path style="stroke: rgb(0, 0, 0);" transform="matrix(0.769168, -0.504766, 0.677061, 1.031713, -148.145981, 17.650749)" d="M 210.433 296.063 A 3.537 3.537 0 0 1 210.433 302.337 A 7.303 7.303 0 0 0 210.433 296.063 Z" bx:shape="crescent 208.8 299.2 3.537 125 0.831 1@2d851211"/>
        <path style="stroke: rgb(0, 0, 0);" transform="matrix(0.836048, -0.548656, 0.853242, 1.300179, -211.549545, -55.968487)" d="M 210.433 296.063 A 3.537 3.537 0 0 1 210.433 302.337 A 7.303 7.303 0 0 0 210.433 296.063 Z" bx:shape="crescent 208.8 299.2 3.537 125 0.831 1@2d851211"/>
      </g>
    </g>
  </g>
</svg>