<?xml version="1.0" encoding="utf-8"?>
<svg viewBox="0 0 500 500" class="xl-secondary secondary" xmlns="http://www.w3.org/2000/svg" xmlns:bx="https://boxy-svg.com">
  <g transform="matrix(0.972239, 0, 0, 1.019641, -2.430731, 12.059365)" style="">
    <title>xl</title>
    <g transform="matrix(0.994908, 0, 0, 0.726719, 1.031645, 37.677773)" style="">
      <path style="stroke: rgb(0, 0, 0); stroke-width: 0px; fill-rule: nonzero; paint-order: stroke; stroke-miterlimit: 19; stroke-dashoffset: -1px; fill: rgb(59, 130, 246);" d="M 358.499 426.395 C 358.499 429.841 356.01 432.637 352.94 432.637 C 344.832 503.696 171.427 506.848 166.964 432.637 C 163.894 432.637 161.405 429.841 161.405 426.395 L 161.405 285.713 C 161.287 282.907 161.227 280.078 161.227 277.23 C 161.227 199.839 205.418 137.101 259.93 137.101 C 314.442 137.101 358.634 199.839 358.634 277.23 C 358.634 279.705 358.588 282.166 358.499 284.609 L 358.499 426.395 Z"/>
    </g>
    <path d="M 196.483 212.568 Q 196.483 185.505 230.593 212.568 L 230.593 212.568 Q 264.702 239.631 230.593 239.631 L 230.593 239.631 Q 196.483 239.631 196.483 212.568 Z" style="stroke: rgb(0, 0, 0); fill: rgb(255, 255, 255);" bx:shape="triangle 196.483 185.505 68.219 54.126 0 0.5 1@a21140d6"/>
    <path d="M -320.281 212.972 Q -320.281 185.909 -286.172 212.972 L -286.172 212.972 Q -252.062 240.035 -286.172 240.035 L -286.172 240.035 Q -320.281 240.035 -320.281 212.972 Z" style="stroke: rgb(0, 0, 0); fill: rgb(239, 239, 239);" transform="matrix(-1, 0, 0, 1, 0, 0)" bx:shape="triangle -320.281 185.909 68.219 54.126 0 0.5 1@970f8f75"/>
    <ellipse style="stroke: rgb(0, 0, 0);" cx="221.166" cy="217.318" rx="7.802" ry="11.018" transform="matrix(0.995442, 0.095368, -0.087296, 0.996215, 29.509475, -10.229591)"/>
    <ellipse style="stroke: rgb(0, 0, 0);" cx="221.166" cy="217.318" rx="7.802" ry="11.018" transform="matrix(0.995442, 0.095368, -0.087296, 0.996215, 85.798542, -10.322616)"/>
    <path d="M 244.568 206.741 C 245.066 207.06 245.518 207.272 245.812 207.722 C 246.069 207.766 246.558 208.008 246.785 208.438 L 251.262 209.325 C 251.744 210.244 248.357 212.863 247.703 213.601 L 246.722 214.045 C 246.254 214.012 242.124 213.337 241.966 213.168 C 241.448 213.072 240.936 212.876 240.465 212.574 L 204.879 189.819 C 204.799 189.768 204.722 189.715 204.647 189.66 C 200.229 189.293 195.564 190.778 191.137 194.182 C 196.988 182.326 206.823 179.913 212.971 186.536 L 244.568 206.741 Z" style="stroke: rgb(0, 0, 0); stroke-linecap: round; stroke-linejoin: round;"/>
    <path d="M 319.297 189.471 C 319.795 189.153 320.246 188.941 320.54 188.491 C 320.797 188.446 321.287 188.204 321.513 187.775 L 325.991 186.887 C 326.473 185.968 323.086 183.349 322.432 182.611 L 321.451 182.168 C 320.983 182.2 316.853 182.875 316.695 183.044 C 316.176 183.141 315.665 183.337 315.194 183.638 L 279.608 206.393 C 279.528 206.444 279.451 206.497 279.376 206.553 C 274.958 206.92 270.292 205.435 265.865 202.031 C 271.717 213.887 281.552 216.299 287.7 209.676 L 319.297 189.471 Z" style="stroke: rgb(0, 0, 0); stroke-linecap: round; stroke-linejoin: round;" transform="matrix(-1, 0, 0, -1, 591.902771, 395.465286)"/>
    <path style="stroke: rgb(0, 0, 0); stroke-linecap: round; stroke-miterlimit: 10; stroke-linejoin: round; stroke-dashoffset: 9px;" d="M 239.607 249.028 C 259.054 257.145 272.718 265.897 277.558 282.466 C 280.977 294.174 281.312 313.325 270.343 324.883 C 265.924 329.538 247.045 344.723 241.51 347.033 C 250.412 313.03 268.551 306.838 239.607 249.028 Z" transform="matrix(0, -0.953511, 1.048756, 0, -52.922582, 545.598725)"/>
    <path d="M 294.658 134.849 C 293.357 151.077 273.584 165.405 257.315 164.907 C 241.046 164.408 224.13 155.286 223.97 138.807 C 223.897 131.223 225.408 124.367 229.561 117.852 C 239.474 102.297 245.844 96.898 245.213 96.655 C 244.62 96.377 264.511 68.975 266.135 64.55 C 278.378 72.092 270.283 88.001 266.796 92.491 C 266.677 101.811 290.991 79.852 265.607 106.286 C 265.418 107.184 271.447 105.817 272.517 105.466 C 275.243 102.874 278.862 104.671 281.272 99.277 C 284.985 99.556 277.403 109.49 278.706 110.962 C 280.409 112.68 290.086 102.494 291.444 100.824 C 293.034 102.673 288.765 131.233 289.574 129.518 C 290.465 127.626 291.241 126.639 291.33 124.482 C 291.352 123.969 292.916 119.151 292.906 118.622 C 296.501 123.241 295.126 129.013 294.658 134.849 Z" style="stroke: rgb(0, 0, 0); stroke-width: 0px; fill: rgb(249, 115, 22);"/>
  </g>
</svg>