<?xml version="1.0" encoding="utf-8"?>
<svg viewBox="0 0 500 500" class="xl-secondary secondary" xmlns="http://www.w3.org/2000/svg" xmlns:bx="https://boxy-svg.com">
  <g transform="matrix(0.972239, 0, 0, 1.019641, -2.430743, -19.689213)" style="">
    <title>xl</title>
    <g transform="matrix(0.994908, 0, 0, 0.726719, 1.031645, 37.677773)" style="">
      <path style="stroke: rgb(0, 0, 0); stroke-width: 0px; fill-rule: nonzero; paint-order: stroke; stroke-miterlimit: 19; stroke-dashoffset: -1px; fill: rgb(249, 115, 22);" d="M 358.499 426.395 C 358.499 429.841 356.01 432.637 352.94 432.637 C 344.832 503.696 171.427 506.848 166.964 432.637 C 163.894 432.637 161.405 429.841 161.405 426.395 L 161.405 285.713 C 161.287 282.907 161.227 280.078 161.227 277.23 C 161.227 199.839 205.418 137.101 259.93 137.101 C 314.442 137.101 358.634 199.839 358.634 277.23 C 358.634 279.705 358.588 282.166 358.499 284.609 L 358.499 426.395 Z"/>
    </g>
    <path d="M 196.483 212.568 Q 196.483 185.505 230.593 212.568 L 230.593 212.568 Q 264.702 239.631 230.593 239.631 L 230.593 239.631 Q 196.483 239.631 196.483 212.568 Z" style="stroke: rgb(0, 0, 0); fill: rgb(243, 243, 243);" bx:shape="triangle 196.483 185.505 68.219 54.126 0 0.5 1@a21140d6"/>
    <path d="M -320.281 212.972 Q -320.281 185.909 -286.172 212.972 L -286.172 212.972 Q -252.062 240.035 -286.172 240.035 L -286.172 240.035 Q -320.281 240.035 -320.281 212.972 Z" style="stroke: rgb(0, 0, 0); fill: rgb(243, 243, 243);" transform="matrix(-1, 0, 0, 1, 0, 0)" bx:shape="triangle -320.281 185.909 68.219 54.126 0 0.5 1@970f8f75"/>
    <ellipse style="stroke: rgb(0, 0, 0);" cx="221.166" cy="217.318" rx="7.802" ry="11.018" transform="matrix(0.995442, 0.095368, -0.087296, 0.996215, 29.509475, -10.229591)"/>
    <ellipse style="stroke: rgb(0, 0, 0);" cx="221.166" cy="217.318" rx="7.802" ry="11.018" transform="matrix(0.995442, 0.095368, -0.087296, 0.996215, 85.798542, -10.322616)"/>
  </g>
  <path d="M 237.51 195.474 C 237.994 195.799 238.433 196.015 238.719 196.474 C 238.969 196.519 239.445 196.766 239.665 197.204 L 244.018 198.109 C 244.487 199.046 241.194 201.716 240.558 202.469 L 239.604 202.921 C 239.149 202.888 235.134 202.2 234.98 202.027 C 234.476 201.929 233.979 201.729 233.521 201.422 L 198.923 178.22 C 198.845 178.168 198.77 178.114 198.697 178.057 C 194.402 177.683 189.866 179.197 185.562 182.668 C 191.251 170.579 200.813 168.119 206.79 174.872 L 237.51 195.474 Z" style="stroke: rgb(0, 0, 0); stroke-linecap: round; stroke-linejoin: round;"/>
  <path d="M 305.119 177.865 C 305.603 177.54 306.042 177.324 306.328 176.865 C 306.578 176.82 307.054 176.573 307.274 176.135 L 311.627 175.23 C 312.096 174.293 308.803 171.623 308.167 170.87 L 307.213 170.418 C 306.758 170.451 302.743 171.139 302.589 171.312 C 302.085 171.41 301.588 171.61 301.13 171.917 L 266.532 195.119 C 266.454 195.171 266.379 195.225 266.306 195.282 C 262.011 195.656 257.475 194.142 253.171 190.671 C 258.86 202.76 268.422 205.22 274.399 198.467 L 305.119 177.865 Z" style="stroke: rgb(0, 0, 0); stroke-linecap: round; stroke-linejoin: round;" transform="matrix(-1, 0, 0, -1, 564.843552, 372.577164)"/>
  <path style="stroke: rgb(0, 0, 0); stroke-linecap: round; stroke-miterlimit: 10; stroke-linejoin: round; stroke-dashoffset: 9px;" d="M 230.525 235.709 C 249.432 243.985 262.716 252.909 267.422 269.803 C 270.746 281.741 271.072 301.268 260.407 313.053 C 256.111 317.8 237.756 333.283 232.375 335.638 C 241.03 300.968 258.665 294.654 230.525 235.709 Z" transform="matrix(0, -1, 1, 0, -35.673256, 535.673744)"/>
  <path d="M 286.209 116.404 C 284.944 132.951 265.72 147.56 249.903 147.052 C 234.086 146.544 217.639 137.242 217.484 120.44 C 217.413 112.707 218.882 105.716 222.919 99.073 C 232.557 83.213 238.75 77.708 238.137 77.46 C 237.56 77.176 256.899 49.236 258.478 44.724 C 270.381 52.414 262.511 68.636 259.121 73.214 C 259.005 82.717 282.644 60.327 257.965 87.28 C 257.781 88.196 263.643 86.802 264.683 86.444 C 267.333 83.801 270.852 85.633 273.195 80.133 C 276.805 80.418 269.433 90.547 270.7 92.048 C 272.356 93.8 281.764 83.413 283.084 81.711 C 284.63 83.596 280.48 112.717 281.266 110.968 C 282.133 109.039 282.887 108.033 282.974 105.833 C 282.995 105.31 284.516 100.398 284.506 99.858 C 288.001 104.568 286.664 110.453 286.209 116.404 Z" style="stroke: rgb(0, 0, 0); fill: rgb(117, 199, 227); stroke-width: 0px;"/>
</svg>