<?xml version="1.0" encoding="utf-8"?>
<svg viewBox="0 0 500 500" class="xl-secondary secondary" xmlns="http://www.w3.org/2000/svg" xmlns:bx="https://boxy-svg.com">
  <defs>
    <radialGradient gradientUnits="userSpaceOnUse" cx="257.36" cy="162.369" r="98.187" id="gradient-1" gradientTransform="matrix(0.005126, 0.423115, -0.584698, 0.011446, 351.483551, 58.638467)">
      <stop offset="0" style="stop-color: rgba(241, 105, 15, 1)"/>
      <stop offset="1" style="stop-color: rgb(218, 93, 9);"/>
    </radialGradient>
  </defs>
  <g transform="matrix(0.972239, 0, 0, 1.019641, 28.931849, 12.059364)" style="">
    <title>gobbler_xl</title>
    <g transform="matrix(0.994908, 0, 0, 0.726719, 1.031645, 37.677773)" style="">
      <path style="stroke: rgb(0, 0, 0); stroke-width: 0px; fill-rule: nonzero; paint-order: stroke; fill: url(#gradient-1); stroke-miterlimit: 19; stroke-dashoffset: -1px;" d="M 358.499 426.395 C 358.499 429.841 356.01 432.637 352.94 432.637 C 344.832 503.696 171.427 506.848 166.964 432.637 C 163.894 432.637 161.405 429.841 161.405 426.395 L 161.405 285.713 C 161.287 282.907 161.227 280.078 161.227 277.23 C 161.227 199.839 205.418 137.101 259.93 137.101 C 314.442 137.101 358.634 199.839 358.634 277.23 C 358.634 279.705 358.588 282.166 358.499 284.609 L 358.499 426.395 Z"/>
    </g>
    <path d="M 196.483 212.568 Q 196.483 185.505 230.593 212.568 L 230.593 212.568 Q 264.702 239.631 230.593 239.631 L 230.593 239.631 Q 196.483 239.631 196.483 212.568 Z" style="fill: rgb(216, 216, 216); stroke: rgb(0, 0, 0);" bx:shape="triangle 196.483 185.505 68.219 54.126 0 0.5 1@a21140d6"/>
    <path d="M -320.281 212.972 Q -320.281 185.909 -286.172 212.972 L -286.172 212.972 Q -252.062 240.035 -286.172 240.035 L -286.172 240.035 Q -320.281 240.035 -320.281 212.972 Z" style="fill: rgb(216, 216, 216); stroke: rgb(0, 0, 0);" transform="matrix(-1, 0, 0, 1, 0, 0)" bx:shape="triangle -320.281 185.909 68.219 54.126 0 0.5 1@970f8f75"/>
    <ellipse style="stroke: rgb(0, 0, 0);" cx="221.166" cy="217.318" rx="7.802" ry="11.018" transform="matrix(0.995442, 0.095368, -0.087296, 0.996215, 29.509475, -10.229591)"/>
    <ellipse style="stroke: rgb(0, 0, 0);" cx="221.166" cy="217.318" rx="7.802" ry="11.018" transform="matrix(0.995442, 0.095368, -0.087296, 0.996215, 85.798542, -10.322616)"/>
  </g>
  <path d="M 270.114 220.664 C 270.598 220.989 271.037 221.205 271.323 221.664 C 271.573 221.709 272.049 221.956 272.269 222.394 L 276.622 223.299 C 277.091 224.236 273.798 226.906 273.162 227.659 L 272.208 228.111 C 271.753 228.078 267.738 227.39 267.584 227.217 C 267.08 227.119 266.583 226.919 266.125 226.612 L 231.527 203.41 C 231.449 203.358 231.374 203.304 231.301 203.247 C 227.006 202.873 222.47 204.387 218.166 207.858 C 223.855 195.769 233.417 193.309 239.394 200.062 L 270.114 220.664 Z" style="stroke: rgb(0, 0, 0); stroke-linecap: round; stroke-linejoin: round;"/>
  <path d="M 336.563 203.055 C 337.047 202.73 337.486 202.514 337.772 202.055 C 338.022 202.01 338.498 201.763 338.718 201.325 L 343.071 200.42 C 343.54 199.483 340.247 196.813 339.611 196.06 L 338.657 195.608 C 338.202 195.641 334.187 196.329 334.033 196.502 C 333.529 196.6 333.032 196.8 332.574 197.107 L 297.976 220.309 C 297.898 220.361 297.823 220.415 297.75 220.472 C 293.455 220.846 288.919 219.332 284.615 215.861 C 290.304 227.95 299.866 230.41 305.843 223.657 L 336.563 203.055 Z" style="stroke: rgb(0, 0, 0); stroke-linecap: round; stroke-linejoin: round;" transform="matrix(-1, 0, 0, -1, 627.731537, 422.957169)"/>
  <path style="stroke: rgb(0, 0, 0); stroke-linecap: round; stroke-miterlimit: 10; stroke-linejoin: round; stroke-dashoffset: 9px;" d="M 263.442 265.979 C 282.349 274.255 295.633 283.179 300.339 300.073 C 303.663 312.011 303.989 331.538 293.324 343.323 C 289.028 348.07 270.673 363.553 265.292 365.908 C 273.947 331.238 291.582 324.924 263.442 265.979 Z" transform="matrix(0, -1, 1, 0, -33.026245, 598.860748)"/>
  <path d="M 320.431 149.557 C 319.166 166.104 299.942 180.713 284.125 180.205 C 268.308 179.697 251.861 170.395 251.706 153.593 C 251.635 145.86 253.104 138.869 257.141 132.226 C 266.779 116.366 272.972 110.861 272.359 110.613 C 271.782 110.329 291.121 82.389 292.7 77.877 C 304.603 85.567 296.733 101.789 293.343 106.367 C 293.227 115.87 316.866 93.48 292.187 120.433 C 292.003 121.349 297.865 119.955 298.905 119.597 C 301.555 116.954 305.074 118.786 307.417 113.286 C 311.027 113.571 303.655 123.7 304.922 125.201 C 306.578 126.953 315.986 116.566 317.306 114.864 C 318.852 116.749 314.702 145.87 315.488 144.121 C 316.355 142.192 317.109 141.186 317.196 138.986 C 317.217 138.463 318.738 133.551 318.728 133.011 C 322.223 137.721 320.886 143.606 320.431 149.557 Z" style="stroke: rgb(0, 0, 0); fill: rgb(117, 199, 227); stroke-width: 0px;"/>
</svg>