<?xml version="1.0" encoding="utf-8"?>
<svg viewBox="0 0 500 500" class="xl-secondary secondary" xmlns="http://www.w3.org/2000/svg" xmlns:bx="https://boxy-svg.com">
  <g transform="matrix(0.972239, 0, 0, 0.929823, -1.930649, 53.83057)" style="">
    <title>xs</title>
    <g transform="matrix(0.994908, 0, 0, 0.788264, 1.031645, 29.239897)" style="">
      <path style="stroke: rgb(0, 0, 0); stroke-width: 0px; fill-rule: nonzero; paint-order: stroke; stroke-miterlimit: 19; stroke-dashoffset: -1px; fill: rgb(249, 115, 22);" d="M 357.466 363.491 C 357.466 366.188 354.99 368.375 351.936 368.375 C 338.067 410.835 162.183 408.063 166.934 368.375 C 163.88 368.375 161.404 366.188 161.404 363.491 L 161.404 253.399 C 161.287 251.203 161.227 248.989 161.227 246.76 C 161.227 186.197 205.187 137.101 259.413 137.101 C 313.64 137.101 357.6 186.197 357.6 246.76 C 357.6 248.697 357.555 250.623 357.466 252.535 L 357.466 363.491 Z"/>
    </g>
    <g transform="matrix(1, 0, 0, 1, -131.066788, 197.976807)">
      <title>eyes</title>
      <path d="M 522.071 299.945 Q 537.964 283.28 552.692 299.945 L 552.692 299.945 Q 567.421 316.61 536.8 316.61 L 536.8 316.61 Q 506.179 316.61 522.071 299.945 Z" style="stroke: rgb(0, 0, 0); fill: rgb(10, 0, 0);" transform="matrix(-1, 0.000055, -0.000055, -1, 956.790588, 331.558075)" bx:shape="triangle 506.179 283.28 61.242 33.33 0.519 0.5 1@40cde379"/>
      <path d="M 522.071 299.945 Q 537.964 283.28 552.692 299.945 L 552.692 299.945 Q 567.421 316.61 536.8 316.61 L 536.8 316.61 Q 506.179 316.61 522.071 299.945 Z" style="stroke: rgb(0, 0, 0); fill: rgb(10, 0, 0);" transform="matrix(-1, 0.000055, -0.000055, -1, 897.74176, 332.556824)" bx:shape="triangle 506.179 283.28 61.242 33.33 0.519 0.5 1@40cde379"/>
      <line style="fill: rgb(216, 216, 216); stroke: rgb(0, 0, 0);" x1="381.639" y1="21.809" x2="398.519" y2="21.809"/>
    </g>
    <path stroke-width="0" d="M 192.306 78.911 C 211.559 88.601 337.506 96.167 340.992 112.541 C 342.808 121.062 353.22 180.637 340.948 181.67 C 312.039 184.104 282.545 162.269 253.496 160.856 C 229.315 159.682 162.883 200.594 166.098 183.838 C 173.094 147.381 172.505 68.946 192.306 78.911 Z" style="stroke-width: 2px; stroke: rgb(151, 170, 89); stroke-opacity: 0; paint-order: fill markers; fill: rgb(117, 199, 227);" class="hair">
      <title>Hair</title>
    </path>
    <ellipse style="stroke: rgb(0, 0, 0);" cx="259.124" cy="280.376" rx="22.626" ry="2.151"/>
  </g>
</svg>